---
title: 群星.1991-8大巨星展魅力【新丽声】【WAV+CUE】
date: 2022-12-12 11:31:37
categories: WAV车载音乐、镜像
tags: 华语中文
---
# 群星.1991-8大巨星展魅力【新丽声】【WAV+CUE】

REM GENRE POP
REM DATE 1991
REM DISCID AB0C720E
REM COMMENT "ExactAudioCopy v0.99pb5"
PERFORMER "群星"
TITLE "8大巨星展魅力）"
FILE "群星.-.[8大巨星展魅力](1991)[WAV].wav" WAVE
TRACK 01 AUDIO
TITLE "你是谁"
PERFORMER "林淑容"
INDEX 01 00:00:00
TRACK 02 AUDIO
TITLE "急转弯"
PERFORMER "林淑容"
INDEX 00 04:38:13
INDEX 01 04:42:33
TRACK 03 AUDIO
TITLE "悲伤的语言"
PERFORMER "张国荣"
INDEX 00 07:47:53
INDEX 01 07:51:40
TRACK 04 AUDIO
TITLE "银白色的沙滩"
PERFORMER "杨美莲"
INDEX 00 11:56:30
INDEX 01 12:04:58
TRACK 05 AUDIO
TITLE "小丑的心声"
PERFORMER "刘家昌"
INDEX 00 15:13:65
INDEX 01 15:18:23
TRACK 06 AUDIO
TITLE "多梦的秋季"
PERFORMER "罗文"
INDEX 00 18:26:63
INDEX 01 18:30:70
TRACK 07 AUDIO
TITLE "依然是你的双手"
PERFORMER "甄妮"
INDEX 00 22:44:23
INDEX 01 22:49:58
TRACK 08 AUDIO
TITLE "当年情"
PERFORMER "张国荣"
INDEX 00 26:28:63
INDEX 01 26:34:60
TRACK 09 AUDIO
TITLE "你的目光"
PERFORMER
"刘家昌&尤雅"
INDEX 00 30:48:48
INDEX 01 30:52:25
TRACK 10 AUDIO
TITLE "我的歌"
PERFORMER "林淑容"
INDEX 00 35:06:25
INDEX 01 35:09:38
TRACK 11 AUDIO
TITLE "水乡"
PERFORMER "杨美莲"
INDEX 00 38:19:33
INDEX 01 38:24:00
TRACK 12 AUDIO
TITLE "临别时的再见"
PERFORMER "曾庆瑜"
INDEX 00 41:56:35
INDEX 01 42:01:43
TRACK 13 AUDIO
TITLE "掌声响起"
PERFORMER "罗文"
INDEX 00 45:04:08
INDEX 01 45:10:23
TRACK 14 AUDIO
TITLE "血染的风彩"
PERFORMER "甄妮"
INDEX 00 48:50:10
INDEX 01 48:53:63
群星.1991 - 8大巨星展魅力【新丽声】【WAV+CUE】.rar:
https://url27.ctfile.com/f/9388027-746400112-cac31e?p=559675
(访问密码: 559675)
原文：[链接](https://blog.sina.com.cn/s/blog_1647c7e76010310kh.html)